# xmcd
#
# Track frame offsets:
#	150
#	11247
#	27610
#	42115
#	54347
#	68652
#	87092
#	101315
#	114077
#	134552
#	153570
#	166717
#	184957
#	197900
#	211492
#	227735
#	242752
#	258917
#	271080
#	289667
#	308635
#
# Disc length: 4270 seconds
#
# Revision: 0
# Processed by: cddbd v1.5.2PL0 Copyright (c) Steve Scherf et al.
# Submitted via: dBpowerAMP V4.0
#
DISCID=1c10ac15
DTITLE=Various Artist - MCA Radio Golden Oldies Volume 01
DYEAR=1900
DGENRE=
TTITLE0=Conway Twitty - Hello Darlin'
TTITLE1=Oak Ridge Boys - Fancy Free
TTITLE2=George Strait - You Look So Good In Love
TTITLE3=Reba McEntire - How Blue
TTITLE4=Steve Wariner - What I Didn't Do
TTITLE5=Bellamy Brothers - Old Hippie
TTITLE6=Lee Greenwood - I.O.U.
TTITLE7=Patsy Cline - Patsy Cline
TTITLE8=Merle Haggard - I Think I'll Just Stay Here and Drink
TTITLE9=Don Williams - Good Ol' Boys Like Me
TTITLE10=George Strait - Let's Fall To Pieces Together
TTITLE11=Oak Ridge Boys - I Guess It Never Hurts To Hurt Sometimes
TTITLE12=Conway Twitty - Tight Fittin' Jeans
TTITLE13=Loretta Lynn - Coal Miner's Daughter
TTITLE14=Lee Greenwood - It Turns Me Inside Out
TTITLE15=Lee Greenwood - Dixie Road
TTITLE16=Reba McEntire - Somebody Should Leave
TTITLE17=John Schneider - I've Been Around Enough To Know
TTITLE18=Don Williams - I Believe In You
TTITLE19=Jimmy Buffett - Margaritaville
TTITLE20=Patsy Cline - Sweet Dreams
EXTD=
EXTT0=
EXTT1=
EXTT2=
EXTT3=
EXTT4=
EXTT5=
EXTT6=
EXTT7=
EXTT8=
EXTT9=
EXTT10=
EXTT11=
EXTT12=
EXTT13=
EXTT14=
EXTT15=
EXTT16=
EXTT17=
EXTT18=
EXTT19=
EXTT20=
PLAYORDER=
